# xmcd
#
# Track frame offsets: 
#        150
#        11226
#        22503
#        43541
#        54574
#        69262
#        82348
#        96511
#        108454
#        117591
#        126416
#        163923
#        175416
#        189507
#        220051
#
# Disc length: 2988 seconds
#
# Revision: 0
# Processed by: cddbd v1.5.2PL0 Copyright (c) Steve Scherf et al.
# Submitted via: ExactAudioCopy v0.99pb5
#
DISCID=d70baa0f
DTITLE=Marty Robbins - Playlist- The Very Best Of Marty Robbins
DYEAR=2011
DGENRE=Country
TTITLE0=Singing The Blues
TTITLE1=A White Sport Coat (And A Pink Carnation)
TTITLE2=El Paso
TTITLE3=Red River Valley
TTITLE4=Don't Worry
TTITLE5=Devil Woman
TTITLE6=Beyond The Reef
TTITLE7=Yours (Quiereme Mucho)
TTITLE8=Ruby Ann
TTITLE9=On The Sunny Side Of The Street
TTITLE10=Faleena (From El Paso)
TTITLE11=Ribbon Of Darkness
TTITLE12=Man Walks Among Us
TTITLE13=El Paso City
TTITLE14=Data
EXTD=
EXTT0=
EXTT1=
EXTT2=
EXTT3=
EXTT4=
EXTT5=
EXTT6=
EXTT7=
EXTT8=
EXTT9=
EXTT10=
EXTT11=
EXTT12=
EXTT13=
EXTT14=
PLAYORDER=
